<mxfile host="app.diagrams.net" modified="2022-08-02T08:48:52.200Z" agent="5.0 (Windows NT 10.0; Win64; x64) AppleWebKit/537.36 (KHTML, like Gecko) Chrome/103.0.0.0 Safari/537.36" etag="jMDnPLK2Hyx5EOqM-9UA" version="18.0.3" type="github">
  <diagram id="Y_zqLpwK-s-20bb0sWx3" name="第 1 页">
    <mxGraphModel dx="1422" dy="754" grid="1" gridSize="10" guides="1" tooltips="1" connect="1" arrows="1" fold="1" page="1" pageScale="1" pageWidth="827" pageHeight="1169" math="0" shadow="0">
      <root>
        <mxCell id="0" />
        <mxCell id="1" parent="0" />
        <mxCell id="Clm08EFhY0WN1bNjYeMY-13" value="" style="edgeStyle=orthogonalEdgeStyle;rounded=0;orthogonalLoop=1;jettySize=auto;html=1;" edge="1" parent="1" source="ttnnJIjA9G-Q_sFXiSrG-1" target="Clm08EFhY0WN1bNjYeMY-12">
          <mxGeometry relative="1" as="geometry" />
        </mxCell>
        <mxCell id="ttnnJIjA9G-Q_sFXiSrG-1" value="原字符串" style="rounded=0;whiteSpace=wrap;html=1;" parent="1" vertex="1">
          <mxGeometry x="160" y="207.5" width="120" height="60" as="geometry" />
        </mxCell>
        <mxCell id="ttnnJIjA9G-Q_sFXiSrG-2" value="底层的byte数组" style="rounded=0;whiteSpace=wrap;html=1;" parent="1" vertex="1">
          <mxGeometry x="160" y="97.5" width="120" height="60" as="geometry" />
        </mxCell>
        <mxCell id="ttnnJIjA9G-Q_sFXiSrG-3" value="" style="endArrow=classic;startArrow=classic;html=1;rounded=0;exitX=0.5;exitY=0;exitDx=0;exitDy=0;" parent="1" source="ttnnJIjA9G-Q_sFXiSrG-1" target="ttnnJIjA9G-Q_sFXiSrG-2" edge="1">
          <mxGeometry width="50" height="50" relative="1" as="geometry">
            <mxPoint x="410" y="437.5" as="sourcePoint" />
            <mxPoint x="460" y="387.5" as="targetPoint" />
          </mxGeometry>
        </mxCell>
        <mxCell id="Clm08EFhY0WN1bNjYeMY-2" value="" style="edgeStyle=orthogonalEdgeStyle;rounded=0;orthogonalLoop=1;jettySize=auto;html=1;" edge="1" parent="1" source="ttnnJIjA9G-Q_sFXiSrG-4" target="Clm08EFhY0WN1bNjYeMY-1">
          <mxGeometry relative="1" as="geometry" />
        </mxCell>
        <mxCell id="ttnnJIjA9G-Q_sFXiSrG-4" value="按照操作系统的编码格式进行将byte数组使用操作系统的默认编码将其转化为char即String的底层实际存储" style="rounded=0;whiteSpace=wrap;html=1;" parent="1" vertex="1">
          <mxGeometry x="367" y="80" width="150" height="95" as="geometry" />
        </mxCell>
        <mxCell id="ttnnJIjA9G-Q_sFXiSrG-5" value="" style="endArrow=classic;html=1;rounded=0;exitX=1;exitY=0.5;exitDx=0;exitDy=0;entryX=0;entryY=0.5;entryDx=0;entryDy=0;" parent="1" source="ttnnJIjA9G-Q_sFXiSrG-2" target="ttnnJIjA9G-Q_sFXiSrG-4" edge="1">
          <mxGeometry width="50" height="50" relative="1" as="geometry">
            <mxPoint x="410" y="437.5" as="sourcePoint" />
            <mxPoint x="460" y="387.5" as="targetPoint" />
          </mxGeometry>
        </mxCell>
        <mxCell id="ttnnJIjA9G-Q_sFXiSrG-6" value="JVM读取" style="text;html=1;align=center;verticalAlign=middle;resizable=0;points=[];autosize=1;strokeColor=none;fillColor=none;" parent="1" vertex="1">
          <mxGeometry x="290" y="97.5" width="60" height="20" as="geometry" />
        </mxCell>
        <mxCell id="Clm08EFhY0WN1bNjYeMY-4" value="" style="edgeStyle=orthogonalEdgeStyle;rounded=0;orthogonalLoop=1;jettySize=auto;html=1;" edge="1" parent="1" source="Clm08EFhY0WN1bNjYeMY-1" target="Clm08EFhY0WN1bNjYeMY-3">
          <mxGeometry relative="1" as="geometry" />
        </mxCell>
        <mxCell id="Clm08EFhY0WN1bNjYeMY-1" value="jvm中的字符串" style="rounded=0;whiteSpace=wrap;html=1;" vertex="1" parent="1">
          <mxGeometry x="382" y="237.5" width="120" height="60" as="geometry" />
        </mxCell>
        <mxCell id="Clm08EFhY0WN1bNjYeMY-9" style="edgeStyle=orthogonalEdgeStyle;rounded=0;orthogonalLoop=1;jettySize=auto;html=1;entryX=0.5;entryY=1;entryDx=0;entryDy=0;" edge="1" parent="1" source="Clm08EFhY0WN1bNjYeMY-3" target="Clm08EFhY0WN1bNjYeMY-1">
          <mxGeometry relative="1" as="geometry">
            <Array as="points">
              <mxPoint x="690" y="317.5" />
              <mxPoint x="442" y="317.5" />
            </Array>
          </mxGeometry>
        </mxCell>
        <mxCell id="Clm08EFhY0WN1bNjYeMY-3" value="jvm操作中的字符串，进行实际操作的时候" style="rounded=0;whiteSpace=wrap;html=1;" vertex="1" parent="1">
          <mxGeometry x="630" y="237.5" width="120" height="60" as="geometry" />
        </mxCell>
        <mxCell id="Clm08EFhY0WN1bNjYeMY-5" value="编码类型" style="text;html=1;align=center;verticalAlign=middle;resizable=0;points=[];autosize=1;strokeColor=none;fillColor=none;" vertex="1" parent="1">
          <mxGeometry x="200" y="167.5" width="60" height="20" as="geometry" />
        </mxCell>
        <mxCell id="Clm08EFhY0WN1bNjYeMY-6" value="操作系统默认编码类型" style="text;html=1;align=center;verticalAlign=middle;resizable=0;points=[];autosize=1;strokeColor=none;fillColor=none;" vertex="1" parent="1">
          <mxGeometry x="400" y="187.5" width="140" height="20" as="geometry" />
        </mxCell>
        <mxCell id="Clm08EFhY0WN1bNjYeMY-8" value="Unicode编码" style="text;html=1;align=center;verticalAlign=middle;resizable=0;points=[];autosize=1;strokeColor=none;fillColor=none;" vertex="1" parent="1">
          <mxGeometry x="517" y="247.5" width="80" height="20" as="geometry" />
        </mxCell>
        <mxCell id="Clm08EFhY0WN1bNjYeMY-10" value="Unicode解码" style="text;html=1;align=center;verticalAlign=middle;resizable=0;points=[];autosize=1;strokeColor=none;fillColor=none;" vertex="1" parent="1">
          <mxGeometry x="517" y="317.5" width="80" height="20" as="geometry" />
        </mxCell>
        <mxCell id="Clm08EFhY0WN1bNjYeMY-16" value="" style="edgeStyle=orthogonalEdgeStyle;rounded=0;orthogonalLoop=1;jettySize=auto;html=1;" edge="1" parent="1" source="Clm08EFhY0WN1bNjYeMY-12">
          <mxGeometry relative="1" as="geometry">
            <mxPoint x="380" y="587.5" as="targetPoint" />
          </mxGeometry>
        </mxCell>
        <mxCell id="Clm08EFhY0WN1bNjYeMY-12" value="&lt;pre style=&quot;background-color: rgb(255, 255, 255); font-family: &amp;quot;JetBrains Mono&amp;quot;, monospace; font-size: 9.8pt;&quot;&gt;原字符串的byte数组&lt;/pre&gt;&lt;pre style=&quot;background-color:#ffffff;color:#080808;font-family:&#39;JetBrains Mono&#39;,monospace;font-size:9.8pt;&quot;&gt;&lt;span style=&quot;color:#000000;&quot;&gt;string&lt;/span&gt;.getBytes(&lt;span style=&quot;color:#067d17;&quot;&gt;&quot;UTF-8&quot;&lt;/span&gt;)&lt;/pre&gt;" style="rounded=0;whiteSpace=wrap;html=1;" vertex="1" parent="1">
          <mxGeometry x="120" y="407.5" width="200" height="50" as="geometry" />
        </mxCell>
        <mxCell id="Clm08EFhY0WN1bNjYeMY-14" value="原字符串在操作系统默认&lt;br&gt;编码类型下的byte数组" style="text;html=1;align=center;verticalAlign=middle;resizable=0;points=[];autosize=1;strokeColor=none;fillColor=none;" vertex="1" parent="1">
          <mxGeometry x="140" y="312.5" width="150" height="30" as="geometry" />
        </mxCell>
        <mxCell id="Clm08EFhY0WN1bNjYeMY-15" value="&lt;pre style=&quot;background-color:#ffffff;color:#080808;font-family:&#39;JetBrains Mono&#39;,monospace;font-size:9.8pt;&quot;&gt;&lt;span style=&quot;color:#000000;&quot;&gt;String sttIso &lt;/span&gt;= &lt;span style=&quot;color:#0033b3;&quot;&gt;new &lt;/span&gt;String(&lt;span style=&quot;color:#000000;&quot;&gt;stt&lt;/span&gt;.getBytes(&lt;span style=&quot;color:#067d17;&quot;&gt;&quot;UTF-8&quot;&lt;/span&gt;), &lt;span style=&quot;color:#067d17;&quot;&gt;&quot;UTF-16LE&quot;&lt;/span&gt;);&lt;/pre&gt;" style="rounded=0;whiteSpace=wrap;html=1;" vertex="1" parent="1">
          <mxGeometry x="130" y="592.5" width="490" height="40" as="geometry" />
        </mxCell>
        <mxCell id="Clm08EFhY0WN1bNjYeMY-17" value="按照原字符串的byte数组按照目标编码类型，获取目标字符串的char类型" style="text;html=1;align=center;verticalAlign=middle;resizable=0;points=[];autosize=1;strokeColor=none;fillColor=none;" vertex="1" parent="1">
          <mxGeometry x="170" y="507.5" width="400" height="20" as="geometry" />
        </mxCell>
      </root>
    </mxGraphModel>
  </diagram>
</mxfile>
